<svg aria-hidden="true" style="position:absolute;width:0;height:0;overflow:hidden" version="1.1" xmlns="http://www.w3.org/2000/svg" xmlns:xlink="http://www.w3.org/1999/xlink"><defs><symbol id="icon-moon" viewBox="0 0 32 32"><path fill="none" stroke="#fff" style="stroke:var(--color1, #fff)" stroke-linejoin="round" stroke-linecap="round" stroke-miterlimit="4" stroke-width="2.9091" d="M2.769 16.962c0.515 7.302 6.772 13.242 14.261 13.569 5.283 0.227 10.008-2.212 12.843-6.054 1.174-1.574 0.544-2.623-1.418-2.268-0.72 0.134-1.549 0.211-2.396 0.211-0.205 0-0.408-0.004-0.611-0.013l0.029 0.001c-7.001-0.283-12.729-6.082-12.757-12.93-0-0.031-0-0.068-0-0.104 0-1.836 0.396-3.579 1.106-5.15l-0.032 0.079c0.773-1.758-0.157-2.594-1.947-1.843-5.67 2.368-9.55 8.025-9.078 14.504z"/></symbol><symbol id="icon-white-circle-btn" viewBox="0 0 32 32"><path fill="#fff" style="fill:var(--color1, #fff)" d="M5.81 5.111c5.902-6.037 15.454-6.055 21.334-0.041s5.862 15.782-0.041 21.819c-5.903 6.037-15.454 6.055-21.334 0.042s-5.862-15.783 0.041-21.819z"/><path fill="none" stroke="#000" style="stroke:var(--color2, #000)" stroke-linejoin="miter" stroke-linecap="round" stroke-miterlimit="4" stroke-width="2.7429" d="M25.136 6.699c4.826 5.274 4.808 13.845-0.040 19.144"/></symbol><symbol id="icon-sun" viewBox="0 0 35 32"><path fill="none" stroke="#fff" style="stroke:var(--color1, #fff)" stroke-linejoin="round" stroke-linecap="round" stroke-miterlimit="4" stroke-width="2.56" d="M18.353 25.16c5.209 0 9.432-4.102 9.432-9.164s-4.223-9.164-9.432-9.164c-5.209 0-9.431 4.102-9.431 9.164s4.223 9.164 9.431 9.164z"/><path fill="none" stroke="#fff" style="stroke:var(--color1, #fff)" stroke-linejoin="round" stroke-linecap="round" stroke-miterlimit="4" stroke-width="3.2" d="M28.747 5.909l0.193-0.187M7.776 26.285l0.193-0.187M18.358 1.718v-0.115M18.358 30.403v-0.115M3.655 16.003h-0.118M33.179 16.003h-0.119M7.968 5.909l-0.193-0.187M28.94 26.285l-0.193-0.187"/></symbol></defs></svg>