<svg width="16" height="16" viewBox="0 0 16 16" fill="none" xmlns="http://www.w3.org/2000/svg">
<path d="M12.3131 15.0005C12.2079 15.0009 12.1052 14.9681 12.0197 14.9067L8.00064 11.993L3.98158 14.9067C3.89571 14.969 3.79227 15.0024 3.6862 15.002C3.58012 15.0016 3.47692 14.9675 3.39151 14.9046C3.3061 14.8417 3.24291 14.7532 3.21107 14.6521C3.17923 14.5509 3.18039 14.4422 3.21439 14.3417L4.78189 9.69892L0.719389 6.91298C0.631393 6.8527 0.564978 6.76586 0.529849 6.66515C0.49472 6.56444 0.492718 6.45513 0.524134 6.3532C0.555551 6.25127 0.618741 6.16206 0.704471 6.0986C0.790201 6.03514 0.893978 6.00076 1.00064 6.00048H6.01252L7.52501 1.34579C7.5576 1.2453 7.62117 1.15771 7.70662 1.09558C7.79207 1.03346 7.895 1 8.00064 1C8.10628 1 8.20921 1.03346 8.29466 1.09558C8.38011 1.15771 8.44368 1.2453 8.47627 1.34579L9.98876 6.00204H15.0006C15.1074 6.00199 15.2114 6.03613 15.2974 6.09947C15.3834 6.16281 15.4469 6.25201 15.4785 6.35402C15.5101 6.45603 15.5082 6.56548 15.4731 6.66634C15.438 6.76721 15.3716 6.85419 15.2835 6.91454L11.2194 9.69892L12.786 14.3405C12.8113 14.4156 12.8185 14.4957 12.8068 14.5742C12.7951 14.6526 12.7649 14.7272 12.7187 14.7917C12.6725 14.8561 12.6116 14.9087 12.5411 14.945C12.4706 14.9813 12.3925 15.0003 12.3131 15.0005Z" fill="url(#paint0_linear_148_6949)"/>
<defs>

</defs>
</svg>
